{
  "accessors": [
    {
      "bufferView": 2,
      "componentType": 5126,
      "count": 65532,
      "max": [
        71.51117706298828,
        -36.363433837890625,
        178.56277465820313
      ],
      "min": [
        -71.53363800048828,
        -89.91656494140625,
        -78.40180206298828
      ],
      "type": "VEC3"
    },
    {
      "bufferView": 2,
      "byteOffset": 786384,
      "componentType": 5126,
      "count": 65532,
      "max": [
        0.9999798536300659,
        0.9999942183494568,
        0.9999404549598694
      ],
      "min": [
        -0.9999906420707703,
        -0.9999883770942688,
        -0.9999922513961792
      ],
      "type": "VEC3"
    },
    {
      "bufferView": 1,
      "componentType": 5126,
      "count": 65532,
      "max": [
        0.9999989867210388,
        0.9998649954795837
      ],
      "min": [
        2.9999999242136255e-05,
        6.000000212225132e-06
      ],
      "type": "VEC2"
    },
    {
      "bufferView": 0,
      "componentType": 5125,
      "count": 332748,
      "type": "SCALAR"
    },
    {
      "bufferView": 2,
      "byteOffset": 1572768,
      "componentType": 5126,
      "count": 11888,
      "max": [
        22.45376205444336,
        -51.531959533691406,
        178.59707641601563
      ],
      "min": [
        -41.111568450927734,
        -79.92101287841797,
        104.1849594116211
      ],
      "type": "VEC3"
    },
    {
      "bufferView": 2,
      "byteOffset": 1715424,
      "componentType": 5126,
      "count": 11888,
      "max": [
        0.9993956089019775,
        0.9999926686286926,
        0.9981614947319031
      ],
      "min": [
        -0.9993302226066589,
        -0.9996407628059387,
        -0.9961228966712952
      ],
      "type": "VEC3"
    },
    {
      "bufferView": 1,
      "byteOffset": 524256,
      "componentType": 5126,
      "count": 11888,
      "max": [
        0.9999960064888,
        0.9411460161209106
      ],
      "min": [
        0.00010599999950500205,
        0.705955982208252
      ],
      "type": "VEC2"
    },
    {
      "bufferView": 0,
      "byteOffset": 1330992,
      "componentType": 5125,
      "count": 59088,
      "type": "SCALAR"
    }
  ],
  "asset": {
    "extras": {
      "author": "Allie2k (https://sketchfab.com/Allie2k)",
      "license": "CC-BY-4.0 (http://creativecommons.org/licenses/by/4.0/)",
      "source": "https://sketchfab.com/3d-models/sculpted-whale-510a36612c624a09afdd32ad4539dc8c",
      "title": "Sculpted Whale"
    },
    "generator": "Sketchfab-12.63.0",
    "version": "2.0"
  },
  "bufferViews": [
    {
      "buffer": 0,
      "byteLength": 1567344,
      "name": "floatBufferViews",
      "target": 34963
    },
    {
      "buffer": 0,
      "byteLength": 619360,
      "byteOffset": 1567344,
      "byteStride": 8,
      "name": "floatBufferViews",
      "target": 34962
    },
    {
      "buffer": 0,
      "byteLength": 1858080,
      "byteOffset": 2186704,
      "byteStride": 12,
      "name": "floatBufferViews",
      "target": 34962
    }
  ],
  "buffers": [
    {
      "byteLength": 4044784,
      "uri": "scene.bin"
    }
  ],
  "images": [
    {
      "uri": "textures/Layer_1_mtl_baseColor.png"
    }
  ],
  "materials": [
    {
      "doubleSided": true,
      "name": "Layer_1_mtl",
      "pbrMetallicRoughness": {
        "baseColorTexture": {
          "index": 0
        },
        "metallicFactor": 0.0,
        "roughnessFactor": 0.5870807926829268
      }
    }
  ],
  "meshes": [
    {
      "name": "Object_0",
      "primitives": [
        {
          "attributes": {
            "NORMAL": 1,
            "POSITION": 0,
            "TEXCOORD_0": 2
          },
          "indices": 3,
          "material": 0,
          "mode": 4
        }
      ]
    },
    {
      "name": "Object_1",
      "primitives": [
        {
          "attributes": {
            "NORMAL": 5,
            "POSITION": 4,
            "TEXCOORD_0": 6
          },
          "indices": 7,
          "material": 0,
          "mode": 4
        }
      ]
    }
  ],
  "nodes": [
    {
      "children": [
        1
      ],
      "matrix": [
        1.0,
        1.6163426806641384e-16,
        -1.5998604783017532e-16,
        0.0,
        1.6081226229577292e-16,
        -0.9999868869781494,
        -0.005124672781676276,
        0.0,
        -1.6081226229577292e-16,
        0.005124672781676276,
        -0.9999868869781494,
        0.0,
        1.8209392327328544e-14,
        -13.298127174377466,
        112.91363525390625,
        1.0
      ],
      "name": "Sketchfab_model"
    },
    {
      "children": [
        2,
        3
      ],
      "name": "whaleMEDIUMexport.obj.cleaner.materialmerger.gles"
    },
    {
      "mesh": 0,
      "name": "Object_2"
    },
    {
      "mesh": 1,
      "name": "Object_3"
    }
  ],
  "samplers": [
    {
      "magFilter": 9729,
      "minFilter": 9987,
      "wrapS": 10497,
      "wrapT": 10497
    }
  ],
  "scene": 0,
  "scenes": [
    {
      "name": "Sketchfab_Scene",
      "nodes": [
        0
      ]
    }
  ],
  "textures": [
    {
      "sampler": 0,
      "source": 0
    }
  ]
}
